<?xml version="1.0" encoding="utf-8"?>
<!-- Generator: Adobe Illustrator 16.0.3, SVG Export Plug-In . SVG Version: 6.00 Build 0)  -->
<!DOCTYPE svg PUBLIC "-//W3C//DTD SVG 1.1//EN" "http://www.w3.org/Graphics/SVG/1.1/DTD/svg11.dtd">
<svg version="1.1" id="Layer_1" xmlns="http://www.w3.org/2000/svg" xmlns:xlink="http://www.w3.org/1999/xlink" x="0px" y="0px"
	 width="64.282px" height="72.286px" viewBox="0 0 64.282 72.286" enable-background="new 0 0 64.282 72.286" xml:space="preserve">
<path fill="#004289" d="M53.564,23.744L11.302,0v6.75l-0.216,0.222L0.122,1.163v38.7c-0.508,9.007,0.365,17.355,6.607,23.602
	c6.825,8.352,17.86,10.6,27.81,7.478c2.105-0.145,4.574,0,6.68-0.437c10.021-1.088,19.896-9.509,22.223-19.46
	C66.197,40.448,61.986,30.28,53.564,23.744z M44.488,59.326c-5.736,7.914-14.958,10.6-24.253,8.494
	c-7.551-1.961-15.031-9.802-15.902-17.719L4.113,38.996V7.697l12.418,6.897l0.218,33.692c0.653,3.051,3.557,6.102,6.534,7.045
	c2.908,0.654,6.39,0.58,8.642-1.308c2.758-2.251,4.43-5.083,4.213-8.713c-0.146-3.339-2.181-6.245-5.012-7.989l-1.959-0.872V23.602
	c7.84,0.433,14.739,6.97,18.081,13.792C49.787,44.294,49.354,53.66,44.488,59.326z"/>
<g>
</g>
<g>
</g>
<g>
</g>
<g>
</g>
<g>
</g>
<g>
</g>
</svg>
