<?xml version="1.0" encoding="utf-8"?>
<!-- Generator: Adobe Illustrator 16.0.3, SVG Export Plug-In . SVG Version: 6.00 Build 0)  -->
<!DOCTYPE svg PUBLIC "-//W3C//DTD SVG 1.1//EN" "http://www.w3.org/Graphics/SVG/1.1/DTD/svg11.dtd">
<svg version="1.1" id="Layer_1" xmlns="http://www.w3.org/2000/svg" xmlns:xlink="http://www.w3.org/1999/xlink" x="0px" y="0px"
	 width="382.94px" height="78px" viewBox="0 0 382.94 78" enable-background="new 0 0 382.94 78" xml:space="preserve">
<g>
	<path fill="#004289" d="M284.78,37.98c0-6.094-2.402-9.543-4.368-11.133c-2.662-2.029-5.975-3.26-12.195-3.26h-17.329v-9.631
		h-12.187v39.065h29.516c6.469,0,9.578-0.506,12.247-2.664C283.131,48.199,284.78,44.072,284.78,37.98z M268.217,43.137h-17.329
		v-9.088h17.329c3.349,0,4.504,1.995,4.504,4.673C272.721,41.007,271.333,43.137,268.217,43.137z"/>
	<path fill="#004289" d="M169.016,46.844l4.11,6.158h13.887l-19.521-39.005h-20.798l-19.961,39.005h14.012l3.667-6.158H169.016z
		 M156.08,22.877h1.839l6.596,13.761h-15.029L156.08,22.877z"/>
	<polygon fill="#004289" points="288.967,53.011 331.465,53.011 331.465,43.97 301.105,43.97 301.105,38.348 330.121,38.348 
		330.121,28.822 301.105,28.822 301.105,23.519 331.465,23.519 331.465,13.994 288.967,13.994 	"/>
	<path fill="#004289" d="M378.625,16.664c-2.663-2.152-5.765-2.661-12.233-2.661h-29.48v39.02h12.173v-8.968h17.308
		c6.214,0,9.896-0.891,12.557-2.92c1.959-1.58,3.992-6.02,3.992-12.107C382.94,22.942,381.292,18.82,378.625,16.664z
		 M369.314,32.768c-0.386,0.312-1.59,0.887-2.923,0.887h-17.308v-9.383h17.308c1.272,0,2.668,0.462,3.257,1.119
		c0.396,0.435,1.253,1.481,1.253,3.762C370.901,31.437,369.695,32.453,369.314,32.768z"/>
	<path fill="#004289" d="M201.397,44.044h17.306c6.205,0,9.891-0.891,12.546-2.916c1.966-1.587,3.995-6.021,3.995-12.107
		c0-6.081-1.651-10.203-4.31-12.359c-2.661-2.152-5.767-2.658-12.231-2.658h-29.474V53.01h12.168V44.044z M201.397,24.268h17.306
		c1.27,0,2.665,0.462,3.257,1.118c0.392,0.436,1.243,1.48,1.243,3.762s-1.203,3.299-1.589,3.615c-0.382,0.31-1.58,0.885-2.911,0.885
		h-17.306V24.268z"/>
	<path fill="#004289" d="M126.733,40.929c0-8.656-4.809-12.119-12.887-12.119h-23.58v-5.199h33.107v-9.617H90.267h-6.724h-5.49
		v39.028h35.794C120.335,53.022,126.733,49.202,126.733,40.929z M90.267,43.912v-6.125h20.885c2.886,0,3.757,1.121,3.757,3.047
		c0,2.287-0.629,3.078-3.757,3.078H90.267z"/>
	<path fill="#004289" d="M89.113,66.946c0.344-0.14,0.604-0.326,0.776-0.556c0.231-0.309,0.343-0.83,0.343-1.595
		c0-0.614-0.158-1.118-0.468-1.497c-0.309-0.377-0.765-0.652-1.357-0.817c-0.578-0.161-1.305-0.243-2.162-0.243H78.04v9.949h8.753
		c0.867,0,1.591-0.098,2.153-0.289c0.576-0.195,1.012-0.52,1.295-0.961c0.282-0.438,0.424-1.02,0.424-1.728
		c0-0.733-0.159-1.275-0.473-1.608C89.947,67.339,89.584,67.119,89.113,66.946z M80.973,68.134h5.348
		c0.438,0,0.764,0.035,0.968,0.107c0.183,0.063,0.303,0.154,0.355,0.271c0.06,0.132,0.089,0.329,0.089,0.589
		c0,0.279-0.034,0.492-0.102,0.633c-0.061,0.125-0.186,0.215-0.382,0.273c-0.218,0.064-0.562,0.098-1.023,0.098h-5.253V68.134z
		 M87.064,65.889c-0.178,0.185-0.42,0.275-0.74,0.275h-5.351V64.32h5.335c0.333,0,0.591,0.076,0.767,0.228
		c0.172,0.147,0.256,0.349,0.256,0.612C87.331,65.464,87.244,65.703,87.064,65.889z"/>
	<polygon fill="#004289" points="108.399,69.982 108.351,69.982 105.199,62.316 105.167,62.238 102.205,62.238 99.045,70.015 
		95.58,62.312 95.547,62.238 92.495,62.238 96.939,72.113 96.972,72.187 101.079,72.187 103.694,65.797 106.309,72.187 
		110.42,72.187 114.797,62.414 114.876,62.238 111.824,62.238 	"/>
	<polygon fill="#004289" points="116.208,64.416 120.896,64.416 120.896,72.187 123.828,72.187 123.828,64.416 128.562,64.416 
		128.562,62.238 116.208,62.238 	"/>
	<path fill="#004289" d="M161.64,63.3c-0.593-0.202-1.389-0.305-2.366-0.305h-3.319v-0.758h-2.933v0.758h-3.347
		c-0.978,0-1.774,0.103-2.368,0.305c-0.611,0.208-1.073,0.58-1.373,1.105c-0.295,0.518-0.444,1.24-0.444,2.15v1.326
		c0,0.627,0.07,1.162,0.207,1.589c0.14,0.438,0.374,0.798,0.695,1.07c0.317,0.27,0.753,0.47,1.296,0.595
		c0.531,0.121,1.199,0.184,1.987,0.184h3.347v0.867h2.933V71.32h3.319c0.788,0,1.456-0.062,1.985-0.184
		c0.541-0.125,0.977-0.324,1.297-0.594c0.323-0.273,0.558-0.631,0.695-1.062c0.135-0.423,0.203-0.961,0.203-1.598v-1.326
		c0-0.91-0.149-1.633-0.445-2.15C162.71,63.88,162.25,63.509,161.64,63.3z M148.423,66.781c0-0.451,0.063-0.795,0.188-1.021
		c0.12-0.218,0.312-0.365,0.584-0.451c0.289-0.09,0.71-0.135,1.253-0.135h2.574v3.969h-2.621c-0.571,0-1.003-0.043-1.282-0.13
		c-0.262-0.081-0.438-0.218-0.537-0.416c-0.105-0.21-0.158-0.534-0.158-0.963V66.781z M155.955,65.173h2.589
		c0.543,0,0.965,0.045,1.253,0.135c0.273,0.086,0.464,0.232,0.585,0.451c0.125,0.227,0.188,0.57,0.188,1.021v0.853
		c0,0.429-0.053,0.753-0.157,0.964c-0.098,0.197-0.272,0.334-0.534,0.414c-0.28,0.088-0.711,0.131-1.283,0.131h-2.641V65.173z"/>
	<polygon fill="#004289" points="169.2,70.009 169.011,70.009 169.011,62.238 166.078,62.238 166.078,72.187 170.868,72.187 
		177.606,64.419 177.795,64.419 177.795,72.187 180.728,72.187 180.728,62.238 176.037,62.238 	"/>
	<path fill="#004289" d="M184.307,68.275c0,0.482-0.04,0.852-0.119,1.096c-0.072,0.227-0.204,0.385-0.403,0.482
		c-0.211,0.104-0.542,0.156-0.982,0.156h-0.125v2.178h1.253c2.195,0,3.309-1.228,3.309-3.647v-4.124h6.055v7.771h2.933v-9.949
		h-11.92V68.275z"/>
	<path fill="#004289" d="M208.579,66.117c-0.587-0.172-1.36-0.26-2.298-0.26h-4.771v-3.619h-2.933v9.949h7.771
		c0.702,0,1.307-0.048,1.798-0.141c0.502-0.096,0.925-0.26,1.256-0.489c0.337-0.233,0.594-0.562,0.762-0.979
		c0.166-0.407,0.25-0.929,0.25-1.55c0-0.824-0.154-1.477-0.46-1.939C209.646,66.622,209.184,66.294,208.579,66.117z M201.51,68.035
		h4.29c0.59,0,1.03,0.071,1.307,0.211c0.253,0.129,0.375,0.384,0.375,0.781c0,0.389-0.116,0.641-0.357,0.769
		c-0.264,0.14-0.688,0.21-1.261,0.21h-4.354V68.035z"/>
	<polygon fill="#004289" points="210.16,64.416 214.847,64.416 214.847,72.187 217.779,72.187 217.779,64.416 222.514,64.416 
		222.514,62.238 210.16,62.238 	"/>
	<path fill="#004289" d="M235.181,63.042c-0.325-0.277-0.747-0.484-1.255-0.613c-0.5-0.127-1.123-0.191-1.854-0.191h-7.771v9.949
		h2.933v-2.866h4.87c0.932,0,1.702-0.12,2.288-0.356c0.599-0.242,1.044-0.633,1.323-1.161c0.275-0.519,0.418-1.206,0.423-2.042
		c0-0.637-0.077-1.183-0.229-1.623C235.753,63.691,235.508,63.322,235.181,63.042z M227.233,64.416h4.354
		c0.632,0,1.064,0.107,1.287,0.317c0.22,0.208,0.331,0.554,0.331,1.026c0,0.342-0.049,0.615-0.143,0.814
		c-0.092,0.191-0.247,0.328-0.475,0.422c-0.238,0.098-0.574,0.148-1.001,0.148h-4.354V64.416z"/>
	<rect x="252.582" y="62.238" fill="#004289" width="2.933" height="9.949"/>
	<path fill="#004289" d="M248.298,66.117c-0.588-0.172-1.361-0.26-2.298-0.26h-4.771v-3.619h-2.933v9.949h7.771
		c0.703,0,1.308-0.048,1.799-0.141c0.502-0.096,0.925-0.26,1.256-0.49c0.336-0.232,0.592-0.562,0.762-0.978
		c0.166-0.407,0.25-0.929,0.25-1.55c0-0.824-0.154-1.477-0.46-1.939C249.363,66.621,248.9,66.294,248.298,66.117z M241.229,68.035
		h4.29c0.59,0,1.03,0.071,1.307,0.211c0.253,0.129,0.375,0.384,0.375,0.781c0,0.389-0.116,0.641-0.357,0.769
		c-0.264,0.14-0.688,0.21-1.262,0.21h-4.353V68.035z"/>
	<path fill="#004289" d="M277.878,62.238h-11.462v4.765c0,0.683-0.1,1.268-0.297,1.739c-0.189,0.456-0.514,0.883-0.966,1.268h-0.841
		v4.497h2.708v-2.319h9.416v2.319h2.688v-4.497h-1.247V62.238z M274.945,64.416v5.594h-6.49c0.256-0.348,0.446-0.704,0.57-1.062
		c0.148-0.43,0.225-0.924,0.225-1.469v-3.062H274.945z"/>
	<path fill="#004289" d="M282.166,68.275c0,0.483-0.039,0.853-0.118,1.096c-0.073,0.227-0.205,0.385-0.403,0.482
		c-0.211,0.104-0.541,0.156-0.982,0.156h-0.125v2.178h1.253c2.196,0,3.31-1.228,3.31-3.647v-4.124h6.054v7.771h2.934v-9.949h-11.921
		V68.275z"/>
	<path fill="#004289" d="M298.644,62.538c-0.608,0.204-1.09,0.575-1.432,1.101c-0.341,0.523-0.514,1.242-0.514,2.137
		c0,0.497,0.122,0.967,0.362,1.398c0.24,0.428,0.56,0.788,0.95,1.069c0.325,0.236,0.676,0.407,1.044,0.509l-3.336,3.436h3.844
		l2.683-3.074h4.276v3.074h2.933v-9.949h-8.639C299.968,62.238,299.236,62.339,298.644,62.538z M306.521,64.32v2.711h-5.402
		c-0.525,0-0.907-0.107-1.136-0.318c-0.227-0.209-0.345-0.559-0.353-1.037c0-0.492,0.1-0.845,0.296-1.049
		c0.196-0.203,0.571-0.307,1.113-0.307H306.521z"/>
	<path fill="#004289" d="M329.342,66.946c0.344-0.14,0.604-0.326,0.775-0.556c0.231-0.309,0.344-0.83,0.344-1.595
		c0-0.614-0.157-1.118-0.468-1.497c-0.31-0.377-0.767-0.652-1.358-0.817c-0.577-0.161-1.305-0.243-2.161-0.243h-8.205v9.949h8.753
		c0.868,0,1.593-0.098,2.153-0.289c0.576-0.195,1.012-0.52,1.296-0.961c0.281-0.438,0.424-1.02,0.424-1.728
		c0-0.735-0.159-1.276-0.473-1.608C330.176,67.339,329.813,67.119,329.342,66.946z M321.201,68.134h5.349
		c0.438,0,0.764,0.035,0.968,0.107c0.184,0.063,0.303,0.154,0.354,0.271c0.06,0.131,0.09,0.328,0.09,0.588
		c0,0.279-0.034,0.492-0.102,0.633c-0.061,0.124-0.188,0.217-0.382,0.273c-0.219,0.064-0.562,0.098-1.023,0.098h-5.254V68.134z
		 M327.293,65.889c-0.179,0.185-0.42,0.275-0.74,0.275h-5.352V64.32h5.336c0.332,0,0.59,0.076,0.767,0.228
		c0.172,0.147,0.256,0.349,0.256,0.612C327.56,65.464,327.473,65.703,327.293,65.889z"/>
	<path fill="#004289" d="M344.95,62.543c-0.593-0.202-1.39-0.306-2.367-0.306h-4.928c-0.798,0-1.466,0.057-1.987,0.17
		c-0.532,0.115-0.972,0.311-1.308,0.583c-0.338,0.274-0.587,0.646-0.741,1.104c-0.151,0.451-0.228,1.024-0.228,1.707v2.947
		c0,0.605,0.079,1.129,0.234,1.557c0.158,0.434,0.414,0.795,0.759,1.076c0.342,0.277,0.788,0.484,1.328,0.613
		c0.53,0.127,1.185,0.191,1.942,0.191h4.928c0.79,0,1.46-0.062,1.989-0.185c0.54-0.124,0.976-0.325,1.295-0.595
		c0.321-0.271,0.555-0.628,0.693-1.062c0.135-0.421,0.203-0.958,0.203-1.597v-2.947c0-0.91-0.148-1.635-0.442-2.153
		C346.023,63.124,345.562,62.751,344.95,62.543z M336.324,66.042c0.013-0.456,0.078-0.802,0.193-1.028
		c0.11-0.218,0.296-0.366,0.567-0.455c0.286-0.095,0.712-0.143,1.265-0.143h3.46c0.544,0,0.965,0.046,1.251,0.136
		c0.271,0.085,0.462,0.233,0.583,0.451c0.124,0.228,0.188,0.571,0.188,1.022V68.5c0,0.428-0.053,0.752-0.157,0.963
		c-0.099,0.199-0.273,0.335-0.534,0.416c-0.28,0.087-0.712,0.131-1.282,0.131h-3.555c-0.542,0-0.96-0.046-1.242-0.136
		c-0.267-0.085-0.449-0.226-0.558-0.43c-0.113-0.214-0.173-0.526-0.179-0.931V66.042z"/>
	<path fill="#004289" d="M362.262,62.238H350.8v4.765c0,0.683-0.1,1.268-0.297,1.739c-0.189,0.456-0.515,0.883-0.966,1.268h-0.841
		v4.497h2.708v-2.319h9.416v2.319h2.688v-4.497h-1.247V62.238z M359.329,64.416v5.594h-6.489c0.254-0.348,0.445-0.704,0.569-1.062
		c0.149-0.43,0.225-0.924,0.225-1.469v-3.062H359.329z"/>
	<path fill="#004289" d="M375.711,66.117c-0.588-0.172-1.361-0.26-2.298-0.26h-4.771v-3.619h-2.933v9.949h7.771
		c0.703,0,1.308-0.048,1.799-0.141c0.502-0.096,0.925-0.26,1.256-0.49c0.336-0.232,0.593-0.562,0.763-0.978
		c0.165-0.407,0.249-0.929,0.249-1.55c0-0.824-0.155-1.477-0.46-1.939C376.776,66.621,376.314,66.294,375.711,66.117z
		 M368.642,68.035h4.29c0.59,0,1.029,0.071,1.307,0.211c0.252,0.129,0.375,0.384,0.375,0.781c0,0.389-0.117,0.641-0.357,0.769
		c-0.264,0.14-0.688,0.21-1.262,0.21h-4.353V68.035z"/>
	<rect x="379.995" y="62.238" fill="#004289" width="2.933" height="9.949"/>
	<path fill="#004289" d="M53.564,23.744L11.302,0v6.75l-0.216,0.222L0.122,1.163v38.7c-0.508,9.007,0.365,17.355,6.607,23.602
		c6.825,8.352,17.86,10.6,27.81,7.478c2.105-0.145,4.575,0,6.68-0.437c10.021-1.088,19.896-9.509,22.223-19.46
		C66.198,40.448,61.987,30.28,53.564,23.744z M44.489,59.326c-5.737,7.914-14.958,10.6-24.254,8.494
		c-7.551-1.961-15.031-9.802-15.902-17.719L4.113,38.996V7.697l12.418,6.897l0.218,33.692c0.653,3.051,3.557,6.102,6.534,7.045
		c2.908,0.654,6.39,0.58,8.642-1.308c2.758-2.251,4.43-5.083,4.212-8.713c-0.146-3.339-2.181-6.245-5.012-7.989l-1.959-0.872V23.602
		c7.84,0.433,14.739,6.97,18.081,13.792C49.788,44.294,49.354,53.66,44.489,59.326z"/>
</g>
<g>
</g>
<g>
</g>
<g>
</g>
<g>
</g>
<g>
</g>
<g>
</g>
</svg>
