<svg
          version="1.0"
          xmlns="http://www.w3.org/2000/svg"
          width="16"
          height="16"
          viewBox="0 0 900.000000 800.000000"
          preserveAspectRatio="xMidYMid meet"
        >
          <g
            transform="translate(0.000000,800.000000) scale(0.100000,-0.100000)"
            fill="#69BF62"
            stroke="none"
          >
            <path
              d="M7425 7443 c-167 -18 -493 -191 -806 -428 -349 -264 -700 -576 -1142
-1014 -474 -469 -858 -869 -1207 -1256 -25 -27 -70 -77 -101 -110 -112 -122
-415 -468 -662 -757 -74 -86 -125 -138 -137 -138 -10 0 -137 60 -282 134 -294
150 -763 355 -962 421 -189 63 -259 76 -447 82 -187 6 -246 -4 -331 -59 -92
-58 -137 -130 -158 -251 -23 -128 -30 -118 325 -472 392 -390 602 -631 875
-1006 100 -138 300 -433 386 -569 78 -124 251 -405 289 -470 21 -36 46 -78 55
-95 10 -16 75 -129 144 -249 147 -256 162 -277 212 -301 56 -26 151 -18 198
18 42 33 58 61 125 228 596 1492 1436 2948 2335 4044 408 498 653 757 1425
1510 260 253 325 347 325 470 0 109 -58 191 -173 243 -45 21 -73 26 -150 28
-53 1 -114 0 -136 -3z"
            />
          </g>
        </svg>