<svg width="25" height="24" viewBox="0 0 25 24" fill="none" xmlns="http://www.w3.org/2000/svg">
<path d="M23 11L24.6338 5.46248L19.0212 6.81636L23 11ZM2.5 11C2.5 5.776 6.95388 1.5 12.5 1.5V0.5C6.44814 0.5 1.5 5.1783 1.5 11H2.5ZM12.5 1.5C16.4664 1.5 19.8823 3.69189 21.4997 6.85341L22.3899 6.39798C20.5995 2.89817 16.8373 0.5 12.5 0.5V1.5Z" fill="#24BBF6"/>
<path d="M2 13L0.366245 18.5375L5.97876 17.1836L2 13ZM22.5 13C22.5 18.224 18.0461 22.5 12.5 22.5V23.5C18.5519 23.5 23.5 18.8217 23.5 13H22.5ZM12.5 22.5C8.53357 22.5 5.11767 20.3081 3.50033 17.1466L2.61006 17.602C4.40046 21.1018 8.16266 23.5 12.5 23.5V22.5Z" fill="#24BBF6"/>
</svg>
