<svg width="53" height="32" viewBox="0 0 53 32" fill="none" xmlns="http://www.w3.org/2000/svg">
<path fill-rule="evenodd" clip-rule="evenodd" d="M5.44922 31.6499H46.9492L26.3086 11.0093L5.44922 31.6499Z" fill="#66C05D"/>
<path fill-rule="evenodd" clip-rule="evenodd" d="M4.65538 30.6132L7.89078 27.4587L6.81231 26.3563L4.7812 28.3365L1.20429 24.6697L0 25.841L4.65538 30.6132Z" fill="#1F1D1E"/>
<path fill-rule="evenodd" clip-rule="evenodd" d="M8.59784 26.74L11.9111 23.5076L11.0034 22.5759L8.89742 24.628L7.88785 23.5914L9.57445 21.9468L8.62181 20.9732L6.93521 22.6178L6.07243 21.7281L8.10654 19.7449L7.19584 18.8132L3.89453 22.0337L8.59784 26.74Z" fill="#1F1D1E"/>
<path fill-rule="evenodd" clip-rule="evenodd" d="M19.4723 16.216C21.117 14.6103 20.5328 12.5312 19.4423 11.4228C18.1062 10.0537 15.7875 10.2245 14.6731 11.306C13.5587 12.3874 12.9865 14.5683 14.5623 16.183C16.2938 17.9595 18.3549 17.3154 19.4723 16.225V16.216ZM18.4597 15.2783C19.1997 14.5594 19.1607 13.8464 17.9654 12.6211C16.9169 11.5456 16.0332 11.9261 15.6018 12.3485C14.9697 12.9477 14.9188 13.8464 15.7845 14.7451C16.8181 15.8056 17.7228 16.0003 18.4597 15.2783Z" fill="#1F1D1E"/>
<path fill-rule="evenodd" clip-rule="evenodd" d="M23.1691 12.5519L24.3914 11.3596L22.552 9.47526L21.4525 4.89478L20.0505 6.26083L20.7785 8.86113L18.316 7.95343L16.9949 9.24159L21.1949 10.5897L23.1691 12.5519Z" fill="#1F1D1E"/>
<path fill-rule="evenodd" clip-rule="evenodd" d="M12.6121 22.8516L13.8523 21.6533L11.3119 19.05L15.4281 20.1195L16.6623 18.9212C16.6623 18.9212 13.6876 17.9057 13.5438 17.9296C13.4988 17.9296 14.1849 16.1142 12.645 15.3083C12.2674 15.1358 11.8459 15.0836 11.4376 15.1586C11.0293 15.2336 10.6539 15.4323 10.3623 15.7278L7.92676 18.1243L12.6121 22.8516ZM11.2611 18.9934L10.1407 17.846C10.4207 17.5396 10.721 17.2524 11.0394 16.9862C11.1792 16.871 11.3569 16.8117 11.5379 16.82C11.7189 16.8283 11.8904 16.9036 12.019 17.0311C12.115 17.1024 12.1933 17.1946 12.2481 17.3008C12.3028 17.4071 12.3325 17.5244 12.3348 17.6439C12.3371 17.7634 12.312 17.8818 12.2614 17.99C12.2108 18.0983 12.1361 18.1935 12.043 18.2684C11.7977 18.5272 11.5355 18.7694 11.2581 18.9934H11.2611Z" fill="#1F1D1E"/>
<path fill-rule="evenodd" clip-rule="evenodd" d="M22.7886 5.79676L21.7041 4.70331L26.4464 0L27.9982 1.56378L26.2906 4.925L29.7716 3.35223L31.2665 4.85909L26.5242 9.5624L25.3799 8.40904L27.8813 5.92557L24.4572 7.48036L23.7502 6.76438L25.3409 3.34325L22.7886 5.79676Z" fill="#1F1D1E"/>
<path fill-rule="evenodd" clip-rule="evenodd" d="M31.0239 14.0981L27.7346 10.7849L32.4799 6.08154L35.7752 9.40681L34.8165 10.3565L32.7525 8.27442L31.9796 9.03834L33.6093 10.683L32.6117 11.6716L30.991 10.0389L29.9545 11.0665L32.0006 13.1305L31.0239 14.0981Z" fill="#1F1D1E"/>
<path fill-rule="evenodd" clip-rule="evenodd" d="M32.0903 15.1882L33.3126 16.4224L35.9039 13.8521L34.9722 18.094L36.2215 19.3552C36.2215 19.3552 37.2071 16.3205 37.237 16.1947C37.237 16.1947 38.3065 16.7939 39.4808 15.7753C39.4808 15.7753 40.6042 14.6789 39.7235 13.3997L36.8416 10.4968L32.0903 15.1882Z" fill="#1F1D1E"/>
<path fill-rule="evenodd" clip-rule="evenodd" d="M41.8655 15.5449L43.0878 16.7792L39.4989 20.3381L41.5061 22.3602L40.3527 23.5046L37.1233 20.2482L41.8655 15.5449Z" fill="#1F1D1E"/>
<path fill-rule="evenodd" clip-rule="evenodd" d="M41.2064 24.3669L45.9487 19.6636L47.141 20.8649L42.3987 25.5682L41.2064 24.3669Z" fill="#1F1D1E"/>
<path fill-rule="evenodd" clip-rule="evenodd" d="M44.5617 27.7491L43.4473 26.6257L48.1895 21.9224L49.8102 23.555L48.4262 28.4381L51.5657 25.3225L52.6502 26.419L47.9079 31.1223L46.4909 29.6963L47.7102 24.5676L44.5617 27.7491Z" fill="#1F1D1E"/>
<path fill-rule="evenodd" clip-rule="evenodd" d="M35.9907 13.7504L37.1261 12.624L37.9979 13.5048C38.0967 13.6036 38.7079 14.062 37.9649 14.76C37.7895 14.8739 37.5798 14.9231 37.372 14.8991C37.1642 14.875 36.9713 14.7792 36.8265 14.6282L35.9907 13.7504Z" fill="white"/>
</svg>
