<svg width="36" height="36" viewBox="0 0 36 36" fill="none" xmlns="http://www.w3.org/2000/svg">
<rect width="36" height="36" rx="18" fill="#004990"/>
<path d="M25.9652 22.397C25.92 22.2607 25.632 22.0598 25.1017 21.7949C24.958 21.7114 24.7532 21.5979 24.4883 21.454C24.2232 21.31 23.9825 21.1773 23.7667 21.0561C23.5505 20.9349 23.348 20.8175 23.1587 20.704C23.1285 20.6813 23.0338 20.6151 22.8747 20.505C22.7155 20.3952 22.5812 20.3138 22.4711 20.2606C22.3613 20.2078 22.2533 20.1812 22.1472 20.1812C21.9957 20.1812 21.8065 20.2893 21.5793 20.505C21.3522 20.7211 21.1438 20.9557 20.9545 21.2097C20.7651 21.4636 20.5643 21.6983 20.3524 21.9142C20.1402 22.1302 19.9658 22.2381 19.8296 22.2381C19.7613 22.2381 19.676 22.2191 19.5738 22.1814C19.4717 22.1436 19.394 22.1112 19.3407 22.085C19.2878 22.0583 19.1971 22.0054 19.0682 21.9256C18.9391 21.8461 18.8673 21.8025 18.8522 21.7949C17.8144 21.219 16.9243 20.5599 16.1818 19.8177C15.4396 19.0751 14.7804 18.1851 14.2047 17.1472C14.1971 17.132 14.1534 17.06 14.074 16.9313C13.9944 16.8025 13.9413 16.7117 13.9148 16.6585C13.8883 16.6055 13.8561 16.5279 13.8183 16.4256C13.7805 16.3234 13.7615 16.2382 13.7615 16.1699C13.7615 16.0336 13.8695 15.8593 14.0854 15.6472C14.3013 15.4352 14.5362 15.2343 14.7899 15.0451C15.0438 14.8558 15.2784 14.6474 15.4944 14.4202C15.7103 14.1929 15.8182 14.0036 15.8182 13.8521C15.8182 13.7462 15.7917 13.6381 15.7387 13.5283C15.6857 13.4182 15.6043 13.2839 15.4944 13.1248C15.3845 12.9657 15.3182 12.8711 15.2954 12.8406C15.1819 12.6514 15.0646 12.4488 14.9433 12.2328C14.8219 12.017 14.6895 11.7763 14.5454 11.5112C14.4016 11.2462 14.288 11.0416 14.2046 10.8977C13.9396 10.3675 13.7389 10.0795 13.6025 10.0342C13.5494 10.0115 13.4698 10 13.3639 10C13.1592 10 12.8922 10.0378 12.5627 10.1137C12.2331 10.1894 11.9737 10.2689 11.7843 10.3523C11.4055 10.5113 11.004 10.9734 10.5797 11.7384C10.1934 12.4504 10.0002 13.1551 10.0002 13.8519C10.0002 14.0563 10.0135 14.2552 10.04 14.4485C10.0665 14.6417 10.1139 14.8595 10.1821 15.102C10.2503 15.3444 10.3052 15.5244 10.3468 15.6417C10.3884 15.759 10.466 15.9692 10.5797 16.2723C10.6932 16.5754 10.7615 16.7609 10.7842 16.8291C11.0493 17.5715 11.3637 18.2343 11.7273 18.8177C12.3255 19.7873 13.1419 20.7894 14.1759 21.8235C15.21 22.8575 16.2118 23.6739 17.1816 24.2723C17.7648 24.6359 18.4279 24.9502 19.1702 25.2155C19.2384 25.2381 19.424 25.3062 19.7269 25.4201C20.0299 25.5337 20.2402 25.6114 20.3575 25.6531C20.4749 25.6948 20.655 25.7498 20.8972 25.818C21.1399 25.8863 21.3575 25.9337 21.5507 25.9604C21.744 25.9865 21.9428 26 22.1473 26C22.8441 26 23.5488 25.8067 24.2609 25.4204C25.0258 24.9963 25.4878 24.5947 25.6469 24.2157C25.7306 24.0265 25.8098 23.767 25.8855 23.4374C25.9615 23.1079 25.9993 22.8409 25.9993 22.6363C25.9995 22.5299 25.9881 22.4505 25.9652 22.397Z" fill="white"/>
</svg>
