<svg width="36" height="36" viewBox="0 0 36 36" fill="none" xmlns="http://www.w3.org/2000/svg">
<rect x="0.5" y="0.5" width="35" height="35" rx="17.5" stroke="#69BF62"/>
<path d="M25.965 22.397C25.9197 22.2607 25.6318 22.0598 25.1014 21.7949C24.9577 21.7114 24.753 21.5979 24.4881 21.454C24.2229 21.31 23.9822 21.1773 23.7665 21.0561C23.5503 20.9349 23.3477 20.8175 23.1585 20.704C23.1282 20.6813 23.0335 20.6151 22.8745 20.505C22.7152 20.3952 22.5809 20.3138 22.4709 20.2606C22.3611 20.2078 22.253 20.1812 22.147 20.1812C21.9955 20.1812 21.8063 20.2893 21.5791 20.505C21.3519 20.7211 21.1435 20.9557 20.9542 21.2097C20.7649 21.4636 20.5641 21.6983 20.3522 21.9142C20.14 22.1302 19.9656 22.2381 19.8294 22.2381C19.761 22.2381 19.6758 22.2191 19.5736 22.1814C19.4715 22.1436 19.3938 22.1112 19.3404 22.085C19.2876 22.0583 19.1969 22.0054 19.068 21.9256C18.9389 21.8461 18.8671 21.8025 18.852 21.7949C17.8141 21.219 16.9241 20.5599 16.1816 19.8177C15.4393 19.0751 14.7802 18.1851 14.2044 17.1472C14.1969 17.132 14.1532 17.06 14.0737 16.9313C13.9941 16.8025 13.9411 16.7117 13.9146 16.6585C13.888 16.6055 13.8559 16.5279 13.818 16.4256C13.7802 16.3234 13.7612 16.2382 13.7612 16.1699C13.7612 16.0336 13.8692 15.8593 14.0851 15.6472C14.301 15.4352 14.5359 15.2343 14.7896 15.0451C15.0435 14.8558 15.2782 14.6474 15.4941 14.4202C15.71 14.1929 15.818 14.0036 15.818 13.8521C15.818 13.7462 15.7915 13.6381 15.7385 13.5283C15.6855 13.4182 15.604 13.2839 15.4941 13.1248C15.3842 12.9657 15.3179 12.8711 15.2952 12.8406C15.1817 12.6514 15.0644 12.4488 14.943 12.2328C14.8217 12.017 14.6892 11.7763 14.5452 11.5112C14.4013 11.2462 14.2878 11.0416 14.2043 10.8977C13.9394 10.3675 13.7386 10.0795 13.6022 10.0342C13.5492 10.0115 13.4696 10 13.3636 10C13.159 10 12.892 10.0378 12.5625 10.1137C12.2328 10.1894 11.9735 10.2689 11.784 10.3523C11.4053 10.5113 11.0038 10.9734 10.5795 11.7384C10.1932 12.4504 10 13.1551 10 13.8519C10 14.0563 10.0133 14.2552 10.0398 14.4485C10.0663 14.6417 10.1136 14.8595 10.1819 15.102C10.25 15.3444 10.305 15.5244 10.3465 15.6417C10.3881 15.759 10.4658 15.9692 10.5795 16.2723C10.693 16.5754 10.7612 16.7609 10.784 16.8291C11.0491 17.5715 11.3635 18.2343 11.727 18.8177C12.3253 19.7873 13.1416 20.7894 14.1757 21.8235C15.2097 22.8575 16.2116 23.6739 17.1813 24.2723C17.7646 24.6359 18.4276 24.9502 19.17 25.2155C19.2382 25.2381 19.4237 25.3062 19.7266 25.4201C20.0297 25.5337 20.2399 25.6114 20.3573 25.6531C20.4747 25.6948 20.6548 25.7498 20.8969 25.818C21.1397 25.8863 21.3573 25.9337 21.5504 25.9604C21.7437 25.9865 21.9426 26 22.147 26C22.8439 26 23.5486 25.8067 24.2607 25.4204C25.0256 24.9963 25.4876 24.5947 25.6466 24.2157C25.7303 24.0265 25.8096 23.767 25.8853 23.4374C25.9613 23.1079 25.999 22.8409 25.999 22.6363C25.9992 22.5299 25.9878 22.4505 25.965 22.397Z" fill="#69BF62"/>
</svg>
