<svg width="21" height="21" viewBox="0 0 21 21" fill="none" xmlns="http://www.w3.org/2000/svg">
<circle cx="10.5" cy="10.5" r="9.5" fill="white" stroke="#24BBF6" stroke-width="2"/>
<path d="M11.236 12.283H10.014L9.78 6.238H11.47L11.236 12.283ZM10.625 15.143H10.612C10.3347 15.143 10.105 15.0477 9.923 14.857C9.741 14.6577 9.65 14.415 9.65 14.129C9.65 13.8257 9.741 13.583 9.923 13.401C10.105 13.2103 10.3433 13.115 10.638 13.115C10.9327 13.115 11.1667 13.2103 11.34 13.401C11.522 13.583 11.613 13.8257 11.613 14.129C11.613 14.4237 11.522 14.6663 11.34 14.857C11.158 15.0477 10.9197 15.143 10.625 15.143Z" fill="#24BBF6"/>
</svg>
